<svg width="118" height="120" viewBox="0 0 118 120" fill="none" xmlns="http://www.w3.org/2000/svg">
<g clip-path="url(#clip0_1387_8454)">
<path fill-rule="evenodd" clip-rule="evenodd" d="M105.215 115.781H107.848C107.848 95.0157 93.4895 76.1877 73.2485 69.7989C81.4385 64.76 86.5682 55.6751 86.5682 45.7944C86.5682 41.8376 85.7748 38.037 84.2136 34.4745L99.8733 25.2706C100.297 25.0251 100.55 24.5603 100.531 24.0657C100.517 23.5711 100.232 23.1249 99.7929 22.9092L59.5741 3.01386C59.2158 2.83164 58.788 2.83164 58.4261 3.01386L18.2073 22.9092C17.7686 23.1249 17.4834 23.5711 17.4651 24.0657V24.114V56.2812H20.0976V26.4345L33.7829 34.4745C32.2217 38.037 31.432 41.8413 31.432 45.7944C31.432 55.6825 36.5726 64.7674 44.7773 69.7989C24.5253 76.1877 10.1526 95.012 10.1526 115.781H12.7851C12.7851 102.04 19.4687 89.1959 30.0755 80.6576L32.1925 79.0437C37.048 75.5667 42.6128 72.9524 48.6602 71.4909C49.2086 71.3571 49.6145 70.8848 49.6657 70.3121C49.7205 69.7431 49.4061 69.1965 48.8906 68.9659C39.8816 64.8939 34.0608 55.7978 34.0608 45.7944C34.0608 42.1091 34.8213 38.5763 36.3167 35.2703C51.0551 35.2591 76.8243 35.2517 81.6798 35.2666C83.1752 38.5725 83.9321 42.1091 83.9321 45.7981C83.9321 55.7978 78.1259 64.8901 69.1389 68.9696C68.6197 69.2039 68.3089 69.7468 68.3637 70.3158C68.4149 70.8885 68.8208 71.3608 69.3692 71.4946C75.4057 72.9524 80.9632 75.5592 85.8077 79.0363L87.932 80.6502C98.5351 89.1885 105.215 102.037 105.215 115.781ZM81.1899 32.6858C78.5281 32.6077 72.5099 32.5854 58.5723 32.5854C53.8936 32.5854 48.3167 32.5878 41.6767 32.5907C40.113 32.5914 38.4904 32.5921 36.8067 32.5928V27.5018L37.6293 27.037L37.6396 27.0311C42.7932 24.0906 49.2043 20.4325 59.1098 20.4325C68.8707 20.4325 75.147 24.036 80.1914 26.9322L80.199 26.9366L81.1899 27.5018V32.6858ZM81.497 24.6049C76.1808 21.5518 69.5667 17.755 59.1098 17.755C48.5067 17.755 41.7609 21.6076 36.3423 24.7016L34.8579 25.5458C34.4337 25.7801 34.1741 26.23 34.1741 26.7172V31.6148L21.5857 24.2145L59.0001 5.70624L96.4181 24.2145L83.8297 31.6111V26.7135C83.8297 26.2263 83.5664 25.7763 83.146 25.5421L81.497 24.6049Z" fill="#617EFF"/>
<path d="M73.3603 104.549C73.0112 104.362 72.594 104.362 72.2448 104.549L67.554 107.058C66.6748 107.528 65.6471 106.768 65.815 105.773L66.7109 100.46C66.7776 100.064 66.6487 99.6608 66.3662 99.3808L62.5692 95.6171C61.8578 94.9119 62.2502 93.6831 63.2333 93.5378L68.4784 92.7626C68.8686 92.7049 69.206 92.4556 69.3806 92.096L71.7278 87.2611C72.1675 86.3553 73.4375 86.3554 73.8771 87.2612L76.2234 92.0959C76.3979 92.4556 76.7354 92.7049 77.1257 92.7626L82.371 93.5379C83.354 93.6832 83.7465 94.9118 83.0352 95.617L79.2389 99.3807C78.9564 99.6608 78.8276 100.064 78.8943 100.46L79.791 105.772C79.959 106.768 78.9313 107.528 78.0521 107.058L73.3603 104.549Z" fill="#FFBA08"/>
<path d="M45.7599 104.549C45.4108 104.362 44.9936 104.362 44.6444 104.549L39.9536 107.058C39.0744 107.528 38.0467 106.768 38.2146 105.773L39.1105 100.46C39.1772 100.064 39.0483 99.6608 38.7658 99.3808L34.9688 95.6171C34.2574 94.9119 34.6498 93.6831 35.6329 93.5378L40.878 92.7626C41.2682 92.7049 41.6056 92.4556 41.7802 92.096L44.1274 87.2611C44.5671 86.3553 45.8371 86.3554 46.2767 87.2612L48.623 92.0959C48.7975 92.4556 49.135 92.7049 49.5253 92.7626L54.7706 93.5379C55.7536 93.6832 56.1461 94.9118 55.4348 95.617L51.6385 99.3807C51.356 99.6608 51.2272 100.064 51.2939 100.46L52.1905 105.772C52.3586 106.768 51.3309 107.528 50.4517 107.058L45.7599 104.549Z" fill="#FFBA08"/>
</g>
<defs>
<clipPath id="clip0_1387_8454">
<rect width="117" height="119" fill="white" transform="translate(0.5 0.5)"/>
</clipPath>
</defs>
</svg>
