<svg width="118" height="120" viewBox="0 0 118 120" fill="none" xmlns="http://www.w3.org/2000/svg">
<g clip-path="url(#clip0_1387_8444)">
<path fill-rule="evenodd" clip-rule="evenodd" d="M105.213 115.781H107.846C107.846 95.0155 93.4878 76.1875 73.2468 69.7987C81.4368 64.7597 86.5665 55.6748 86.5665 45.7941C86.5665 41.8374 85.7731 38.0368 84.2119 34.4742L99.8716 25.2703C100.296 25.0249 100.548 24.5601 100.53 24.0655C100.515 23.5709 100.23 23.1246 99.7912 22.9089L59.5724 3.01362C59.2141 2.8314 58.7863 2.8314 58.4243 3.01362L18.2056 22.9089C17.7668 23.1246 17.4817 23.5709 17.4634 24.0655V24.1138V56.281H20.0959V26.4343L33.7812 34.4742C32.22 38.0368 31.4303 41.8411 31.4303 45.7941C31.4303 55.6823 36.5709 64.7672 44.7756 69.7987C24.5236 76.1875 10.1509 95.0118 10.1509 115.781H12.7834C12.7834 102.04 19.467 89.1956 30.0738 80.6574L32.1908 79.0435C37.0463 75.5664 42.6111 72.9521 48.6585 71.4907C49.2069 71.3568 49.6128 70.8845 49.664 70.3118C49.7188 69.7429 49.4044 69.1962 48.8888 68.9656C39.8798 64.8936 34.0591 55.7976 34.0591 45.7941C34.0591 42.1088 34.8196 38.576 36.315 35.2701C51.0533 35.2589 76.8226 35.2515 81.6781 35.2663C83.1735 38.5723 83.9303 42.1088 83.9303 45.7978C83.9303 55.7976 78.1242 64.8899 69.1372 68.9694C68.618 69.2037 68.3072 69.7466 68.362 70.3156C68.4132 70.8882 68.8191 71.3605 69.3675 71.4944C75.404 72.9521 80.9615 75.559 85.806 79.036L87.9303 80.65C98.5334 89.1882 105.213 102.036 105.213 115.781ZM81.1882 32.6855C78.5264 32.6074 72.5082 32.5851 58.5706 32.5851C53.8919 32.5851 48.3149 32.5876 41.675 32.5905C40.1113 32.5911 38.4887 32.5918 36.8049 32.5926V27.5016L37.6276 27.0367L37.6379 27.0308C42.7915 24.0903 49.2026 20.4322 59.1081 20.4322C68.869 20.4322 75.1453 24.0358 80.1896 26.9319L80.1973 26.9363L81.1882 27.5016V32.6855ZM81.4953 24.6047C76.1791 21.5516 69.5649 17.7547 59.1081 17.7547C48.5049 17.7547 41.7592 21.6074 36.3406 24.7014L34.8562 25.5455C34.432 25.7798 34.1724 26.2298 34.1724 26.7169V31.6145L21.584 24.2142L58.9984 5.70599L96.4164 24.2142L83.828 31.6108V26.7132C83.828 26.2261 83.5647 25.7761 83.1442 25.5418L81.4953 24.6047Z" fill="#617EFF"/>
<path d="M59.2915 104.404C59.1098 104.307 58.8916 104.307 58.71 104.404L52.7102 107.613C52.2585 107.855 51.7263 107.472 51.8115 106.967L52.9624 100.142C52.9958 99.9442 52.9309 99.7427 52.7885 99.6015L47.9033 94.7592C47.5426 94.4016 47.7448 93.7856 48.2472 93.7114L54.9776 92.7166C55.1792 92.6868 55.3531 92.5593 55.4421 92.3759L58.446 86.1883C58.6708 85.7253 59.3305 85.7253 59.5553 86.1884L62.5581 92.3759C62.6471 92.5592 62.821 92.6868 63.0227 92.7166L69.7531 93.7114C70.2556 93.7857 70.4578 94.4015 70.0971 94.7591L65.2129 99.6015C65.0705 99.7427 65.0057 99.9442 65.039 100.142L66.191 106.967C66.2762 107.472 65.744 107.855 65.2923 107.613L59.2915 104.404Z" fill="#FFBA08"/>
</g>
<defs>
<clipPath id="clip0_1387_8444">
<rect width="117" height="119" fill="white" transform="translate(0.5 0.5)"/>
</clipPath>
</defs>
</svg>
