<svg width="118" height="120" viewBox="0 0 118 120" fill="none" xmlns="http://www.w3.org/2000/svg">
<g clip-path="url(#clip0_1387_8465)">
<path fill-rule="evenodd" clip-rule="evenodd" d="M105.215 115.781H107.848C107.848 95.0157 93.4895 76.1877 73.2485 69.7989C81.4385 64.76 86.5682 55.6751 86.5682 45.7944C86.5682 41.8376 85.7748 38.037 84.2136 34.4745L99.8733 25.2706C100.297 25.0251 100.55 24.5603 100.531 24.0657C100.517 23.5711 100.232 23.1249 99.7929 22.9092L59.5741 3.01386C59.2158 2.83164 58.788 2.83164 58.4261 3.01386L18.2073 22.9092C17.7686 23.1249 17.4834 23.5711 17.4651 24.0657V24.114V56.2812H20.0976V26.4345L33.7829 34.4745C32.2217 38.037 31.432 41.8413 31.432 45.7944C31.432 55.6825 36.5726 64.7674 44.7773 69.7989C24.5253 76.1877 10.1526 95.012 10.1526 115.781H12.7851C12.7851 102.04 19.4687 89.1959 30.0755 80.6576L32.1925 79.0437C37.048 75.5667 42.6128 72.9524 48.6602 71.4909C49.2086 71.3571 49.6145 70.8848 49.6657 70.3121C49.7205 69.7431 49.4061 69.1965 48.8906 68.9659C39.8816 64.8939 34.0608 55.7978 34.0608 45.7944C34.0608 42.1091 34.8213 38.5763 36.3167 35.2703C51.0551 35.2591 76.8243 35.2517 81.6798 35.2666C83.1752 38.5725 83.9321 42.1091 83.9321 45.7981C83.9321 55.7978 78.1259 64.8901 69.1389 68.9696C68.6197 69.2039 68.3089 69.7468 68.3637 70.3158C68.4149 70.8885 68.8208 71.3608 69.3692 71.4946C75.4057 72.9524 80.9632 75.5592 85.8077 79.0363L87.932 80.6502C98.5351 89.1885 105.215 102.037 105.215 115.781ZM81.1899 32.6858C78.5281 32.6077 72.5099 32.5854 58.5723 32.5854C53.8936 32.5854 48.3167 32.5878 41.6767 32.5907C40.113 32.5914 38.4904 32.5921 36.8067 32.5928V27.5018L37.6293 27.037L37.6396 27.0311C42.7932 24.0906 49.2043 20.4325 59.1098 20.4325C68.8707 20.4325 75.147 24.036 80.1914 26.9322L80.199 26.9366L81.1899 27.5018V32.6858ZM81.497 24.6049C76.1808 21.5518 69.5667 17.755 59.1098 17.755C48.5067 17.755 41.7609 21.6076 36.3423 24.7016L34.8579 25.5458C34.4337 25.7801 34.1741 26.23 34.1741 26.7172V31.6148L21.5857 24.2145L59.0001 5.70624L96.4181 24.2145L83.8297 31.6111V26.7135C83.8297 26.2263 83.5664 25.7763 83.146 25.5421L81.497 24.6049Z" fill="#617EFF"/>
<path d="M59.5582 103.684C59.209 103.498 58.7919 103.498 58.4427 103.684L53.7519 106.193C52.8727 106.663 51.845 105.904 52.0129 104.908L52.9088 99.5953C52.9755 99.1999 52.8466 98.7963 52.5641 98.5163L48.7671 94.7526C48.0557 94.0474 48.4481 92.8186 49.4312 92.6733L54.6762 91.8981C55.0665 91.8404 55.4039 91.5911 55.5785 91.2315L57.9257 86.3966C58.3654 85.4908 59.6353 85.4909 60.075 86.3967L62.4212 91.2314C62.5958 91.5911 62.9332 91.8404 63.3236 91.8981L68.5688 92.6734C69.5518 92.8187 69.9443 94.0473 69.233 94.7525L65.4368 98.5162C65.1543 98.7963 65.0254 99.1999 65.0922 99.5953L65.9888 104.908C66.1569 105.904 65.1292 106.663 64.2499 106.193L59.5582 103.684Z" fill="#FFBA08"/>
<path d="M79.6101 104.971C79.2609 104.784 78.8438 104.784 78.4946 104.971L76.2089 106.193C75.3297 106.663 74.302 105.904 74.4699 104.908L74.9065 102.319C74.9731 101.924 74.8442 101.52 74.5617 101.24L72.7112 99.406C71.9998 98.7008 72.3923 97.4721 73.3753 97.3268L75.9313 96.949C76.3215 96.8913 76.6589 96.642 76.8335 96.2824L77.9776 93.9258C78.4173 93.02 79.6873 93.0201 80.1269 93.9259L81.2704 96.2823C81.445 96.642 81.7824 96.8913 82.1727 96.949L84.7289 97.3268C85.7119 97.4721 86.1044 98.7008 85.3931 99.406L83.543 101.24C83.2605 101.52 83.1316 101.924 83.1984 102.319L83.6353 104.908C83.8033 105.904 82.7757 106.663 81.8964 106.193L79.6101 104.971Z" fill="#FFBA08"/>
<path d="M39.5056 104.971C39.1565 104.784 38.7393 104.784 38.3901 104.971L36.1044 106.193C35.2252 106.663 34.1975 105.904 34.3654 104.908L34.802 102.319C34.8686 101.924 34.7397 101.52 34.4572 101.24L32.6067 99.406C31.8953 98.7008 32.2878 97.4721 33.2708 97.3268L35.8268 96.949C36.217 96.8913 36.5544 96.642 36.729 96.2824L37.8731 93.9258C38.3128 93.02 39.5828 93.0201 40.0224 93.9259L41.1659 96.2823C41.3405 96.642 41.6779 96.8913 42.0683 96.949L44.6244 97.3268C45.6074 97.4721 45.9999 98.7008 45.2886 99.406L43.4385 101.24C43.156 101.52 43.0271 101.924 43.0939 102.319L43.5308 104.908C43.6988 105.904 42.6712 106.663 41.7919 106.193L39.5056 104.971Z" fill="#FFBA08"/>
</g>
<defs>
<clipPath id="clip0_1387_8465">
<rect width="117" height="119" fill="white" transform="translate(0.5 0.5)"/>
</clipPath>
</defs>
</svg>
