<svg width="93" height="92" viewBox="0 0 93 92" fill="none" xmlns="http://www.w3.org/2000/svg">
<g clip-path="url(#clip0_1387_7926)">
<path d="M46.5001 14.3751C46.5001 15.9621 45.2121 17.2501 43.6251 17.2501C42.0381 17.2501 40.7501 15.9621 40.7501 14.3751C40.7501 12.7881 42.0381 11.5001 43.6251 11.5001C45.2121 11.5001 46.5001 12.7881 46.5001 14.3751ZM20.6251 51.7501C19.0381 51.7501 17.7501 53.0381 17.7501 54.6251C17.7501 56.2121 19.0381 57.5001 20.6251 57.5001C22.2121 57.5001 23.5001 56.2121 23.5001 54.6251C23.5001 53.0381 22.2121 51.7501 20.6251 51.7501ZM29.2501 18.6876C28.4566 18.6876 27.8126 19.3316 27.8126 20.1251C27.8126 20.9186 28.4566 21.5626 29.2501 21.5626C30.0436 21.5626 30.6876 20.9186 30.6876 20.1251C30.6876 19.3316 30.0436 18.6876 29.2501 18.6876ZM32.1251 33.0626C31.3316 33.0626 30.6876 33.7066 30.6876 34.5001C30.6876 35.2936 31.3316 35.9376 32.1251 35.9376C32.9186 35.9376 33.5626 35.2936 33.5626 34.5001C33.5626 33.7066 32.9186 33.0626 32.1251 33.0626ZM17.7501 27.3126C16.9566 27.3126 16.3126 27.9566 16.3126 28.7501C16.3126 29.5436 16.9566 30.1876 17.7501 30.1876C18.5436 30.1876 19.1876 29.5436 19.1876 28.7501C19.1876 27.9566 18.5436 27.3126 17.7501 27.3126ZM36.0351 20.1251C36.0351 16.3847 32.9905 13.3401 29.2501 13.3401C25.5097 13.3401 22.4651 16.3847 22.4651 20.1251C22.4651 23.8655 25.5097 26.9101 29.2501 26.9101C32.9905 26.9101 36.0351 23.8655 36.0351 20.1251ZM33.9651 20.1251C33.9651 22.7241 31.8491 24.8401 29.2501 24.8401C26.6511 24.8401 24.5351 22.7241 24.5351 20.1251C24.5351 17.5261 26.6511 15.4101 29.2501 15.4101C31.8491 15.4101 33.9651 17.5261 33.9651 20.1251V20.1251ZM22.2351 41.4001C22.2351 38.2922 19.708 35.7651 16.6001 35.7651C13.4922 35.7651 10.9651 38.2922 10.9651 41.4001C10.9651 44.508 13.4922 47.0351 16.6001 47.0351C19.708 47.0351 22.2351 44.5051 22.2351 41.4001V41.4001ZM20.1651 41.4001C20.1651 43.3666 18.5637 44.9651 16.6001 44.9651C14.6365 44.9651 13.0351 43.3637 13.0351 41.4001C13.0351 39.4365 14.6365 37.8351 16.6001 37.8351C18.5637 37.8351 20.1651 39.4336 20.1651 41.4001ZM90.6601 73.3126V89.1251C90.6601 89.6972 90.1972 90.1601 89.6251 90.1601H26.3751C25.9553 90.1601 25.5787 89.9071 25.4177 89.519C25.2567 89.1308 25.3458 88.6881 25.642 88.3891L36.1846 77.8493C36.3772 77.6567 36.6417 77.5475 36.9148 77.5475H72.7776V73.3126C72.7776 72.7405 73.2405 72.2776 73.8126 72.2776H80.221C82.245 68.5717 83.3116 64.3886 83.3116 60.1393C83.3116 51.1808 78.5966 42.9382 70.9376 38.3756C69.3736 40.9803 66.5216 42.7283 63.2671 42.7283C61.7577 42.7283 60.3317 42.3517 59.0868 41.6905L50.2836 56.9308C49.999 57.4311 49.3693 57.5978 48.8691 57.3103L45.2035 55.1943L43.6021 57.9658L47.2706 60.0847C47.5092 60.2227 47.6817 60.447 47.7507 60.7143C47.8226 60.9788 47.7852 61.2606 47.6472 61.4963L45.0108 66.059C44.7262 66.5563 44.0995 66.726 43.5963 66.4385L29.9027 58.5351C29.4082 58.2476 29.2386 57.618 29.5232 57.1235L32.1596 52.558C32.2976 52.3193 32.5218 52.144 32.7892 52.075C33.0508 52.006 33.3383 52.0376 33.5741 52.1785L37.2426 54.2945L38.8411 51.523L35.1726 49.407C34.934 49.269 34.7615 49.0447 34.6925 48.7802C34.6206 48.5157 34.658 48.234 34.796 47.9953L56.8357 9.82684C51.2496 5.96284 44.7118 3.91009 37.8751 3.91009C19.4233 3.91009 4.41009 18.9233 4.41009 37.3751C4.41009 55.8268 19.4233 70.8401 37.8751 70.8401V72.913C18.282 72.9101 2.34009 56.9682 2.34009 37.3751C2.34009 17.782 18.282 1.84009 37.8751 1.84009C45.0798 1.84009 51.9712 3.99059 57.8793 8.02996L61.1568 2.35759C61.4443 1.86309 62.0797 1.69921 62.5685 1.97809L76.2621 9.87571C76.5007 10.0137 76.6761 10.238 76.7451 10.5053C76.8141 10.7727 76.7796 11.0516 76.6416 11.2902L68.0223 26.2143C70.538 27.7985 72.2141 30.5987 72.2141 33.7842C72.2141 34.7215 72.0675 35.6242 71.7972 36.4752C80.2008 41.3857 85.3873 50.3672 85.3873 60.1365C85.3873 64.357 84.4127 68.5171 82.5583 72.2747H89.6251C90.1972 72.2776 90.6601 72.7405 90.6601 73.3126V73.3126ZM37.1103 56.6031C37.096 56.5973 37.0816 56.5887 37.0701 56.5801L33.4418 54.4842L31.8405 57.2557L43.7401 64.1241L45.3415 61.3555L37.1103 56.6031ZM40.4396 56.1345L41.8138 56.928L43.4152 54.1565L40.6437 52.5551L39.0452 55.3266L40.4396 56.1345ZM57.3791 40.5088C55.5103 38.8701 54.3258 36.4637 54.3258 33.7871C54.3258 28.8593 58.3393 24.8487 63.2671 24.8487C64.2733 24.8487 65.2422 25.0155 66.145 25.3231L74.3272 11.1522L62.4276 4.28959L37.1103 48.1333L40.7328 50.2263C40.7472 50.235 40.7645 50.2436 40.7788 50.2522L43.9183 52.0663L49.01 55.0017L57.3791 40.5088ZM70.1412 33.7871C70.1412 30.0007 67.0592 26.9158 63.27 26.9158C59.4807 26.9158 56.3987 29.9978 56.3987 33.7871C56.3987 36.0411 57.4883 38.045 59.1702 39.2985C59.1961 39.31 59.2248 39.3243 59.2478 39.3416C59.3312 39.3905 59.406 39.4451 59.4692 39.5112C60.5588 40.2357 61.8641 40.6583 63.2671 40.6583C66.0616 40.6583 68.4708 38.9822 69.5432 36.5845C69.5576 36.55 69.5748 36.5155 69.5921 36.4781C69.9457 35.6501 70.1412 34.7416 70.1412 33.7871ZM88.5901 74.3476H80.9052C80.8448 74.3447 80.796 74.3447 80.7471 74.3476H74.8476V78.5853C74.8476 79.1575 74.3847 79.6203 73.8126 79.6203H37.3461L28.8735 88.0901H88.5901V74.3476Z" fill="#617EFF"/>
</g>
<defs>
<clipPath id="clip0_1387_7926">
<rect width="92" height="92" fill="white" transform="translate(0.5)"/>
</clipPath>
</defs>
</svg>
