<svg width="89" height="90" viewBox="0 0 89 90" fill="none" xmlns="http://www.w3.org/2000/svg">
<path d="M73.2501 89.1601C67.9227 89.1601 63.5901 84.8246 63.5901 79.5001V17.2851H54.1601V79.5001C54.1601 84.8275 49.8246 89.1601 44.5001 89.1601C39.1756 89.1601 34.8401 84.8246 34.8401 79.5001V17.2851H25.4101V79.5001C25.4101 84.8275 21.0775 89.1601 15.7501 89.1601C10.4227 89.1601 6.09009 84.8275 6.09009 79.5001V17.2851H1.37509C0.802963 17.2851 0.340088 16.8222 0.340088 16.2501C0.340088 15.678 0.802963 15.2151 1.37509 15.2151H6.09009V2.91009H4.25009C3.67796 2.91009 3.21509 2.44721 3.21509 1.87509C3.21509 1.30296 3.67796 0.840088 4.25009 0.840088H27.2501C27.8222 0.840088 28.2851 1.30296 28.2851 1.87509C28.2851 2.44721 27.8222 2.91009 27.2501 2.91009H25.4101V15.2151H34.8401V2.91009H33.0001C32.428 2.91009 31.9651 2.44721 31.9651 1.87509C31.9651 1.30296 32.428 0.840088 33.0001 0.840088H56.0001C56.5722 0.840088 57.0351 1.30296 57.0351 1.87509C57.0351 2.44721 56.5722 2.91009 56.0001 2.91009H54.1601V15.2151H63.5872V2.91009H61.7501C61.178 2.91009 60.7151 2.44721 60.7151 1.87509C60.7151 1.30296 61.178 0.840088 61.7501 0.840088H84.7501C85.3222 0.840088 85.7851 1.30296 85.7851 1.87509C85.7851 2.44721 85.3222 2.91009 84.7501 2.91009H82.9101V15.2151H87.6251C88.1972 15.2151 88.6601 15.678 88.6601 16.2501C88.6601 16.8222 88.1972 17.2851 87.6251 17.2851H82.9101V79.5001C82.9101 84.8275 78.5775 89.1601 73.2501 89.1601ZM65.6601 37.4101V79.5001C65.6601 83.6861 69.0641 87.0901 73.2501 87.0901C77.4361 87.0901 80.8401 83.6861 80.8401 79.5001V37.4101H65.6601ZM36.9101 66.1601V79.5001C36.9101 83.6861 40.317 87.0901 44.5001 87.0901C48.6861 87.0901 52.0901 83.6861 52.0901 79.5001V66.1601H36.9101ZM8.16009 48.9101V79.5001C8.16009 83.6861 11.567 87.0901 15.7501 87.0901C19.9332 87.0901 23.3401 83.6861 23.3401 79.5001V48.9101H8.16009ZM36.9101 64.0901H52.0901V17.2851H36.9101V64.0901ZM8.16009 46.8401H23.3401V17.2851H8.16009V46.8401ZM65.6601 35.3401H80.8372V17.2851H65.6601V35.3401ZM65.6601 15.2151H80.8372V2.91009H65.6601V15.2151ZM36.9101 15.2151H52.0901V2.91009H36.9101V15.2151ZM8.16009 15.2151H23.3401V2.91009H8.16009V15.2151Z" fill="#617EFF"/>
</svg>
