<svg width="89" height="90" viewBox="0 0 89 90" fill="none" xmlns="http://www.w3.org/2000/svg">
<path d="M3.21509 1.87509C3.21509 1.30296 3.67796 0.840088 4.25009 0.840088C4.82221 0.840088 5.28509 1.30296 5.28509 1.87509C5.28509 5.13246 7.65409 6.59009 10.0001 6.59009C14.6576 6.59009 16.7793 10.1062 16.7793 13.3751C16.7793 13.9472 16.3165 14.4101 15.7443 14.4101C15.1722 14.4101 14.7122 13.9472 14.7122 13.3751C14.7122 11.0291 13.2546 8.66009 10.0001 8.66009C6.73121 8.66009 3.21509 6.53834 3.21509 1.87509ZM12.8751 2.91009C18.053 2.91009 20.4651 5.32221 20.4651 10.5001C20.4651 11.0722 20.928 11.5351 21.5001 11.5351C22.0722 11.5351 22.5351 11.0722 22.5351 10.5001C22.5351 4.18084 19.1943 0.840088 12.8751 0.840088C12.303 0.840088 11.8401 1.30296 11.8401 1.87509C11.8401 2.44721 12.303 2.91009 12.8751 2.91009ZM88.6601 47.8751V88.1251C88.6601 88.6972 88.1972 89.1601 87.6251 89.1601H1.37509V87.0901H8.96509V80.5351H4.25009C4.00571 80.5351 3.76709 80.4488 3.58021 80.2878C1.52171 78.537 0.340088 76.1536 0.340088 73.7501C0.340088 71.3466 1.52171 68.9632 3.57734 67.2123C3.76709 67.0513 4.00571 66.9651 4.25009 66.9651H8.96509V33.9716C6.78296 31.962 4.65259 28.1698 4.65259 24.8751C4.65259 21.3935 7.03596 17.3483 9.34171 15.4508C9.52571 15.2985 9.76146 15.2151 10.0001 15.2151H21.5001C21.7387 15.2151 21.9745 15.2985 22.1585 15.4508C24.4642 17.3483 26.8476 21.3935 26.8476 24.8751C26.8476 28.1698 24.7172 31.962 22.5351 33.9716V47.0183C23.1302 46.9005 23.7455 46.8401 24.3751 46.8401H27.2501C28.265 46.8401 29.0901 46.015 29.0901 45.0001V19.1251C29.0901 13.7977 33.4227 9.46509 38.7501 9.46509H44.5001C49.8275 9.46509 54.1601 13.7977 54.1601 19.1251V23.8401H56.0001C56.5722 23.8401 57.0351 24.303 57.0351 24.8751V87.0901H60.7122V47.8751C60.7122 47.303 61.1751 46.8401 61.7472 46.8401H87.6222C88.1972 46.8401 88.6601 47.303 88.6601 47.8751ZM62.7851 78.4651H86.5872V48.9101H62.7851V78.4651ZM62.7851 87.0901H86.5872V80.5351H62.7851V87.0901ZM45.5351 25.9101V87.0901H54.9651V25.9101H45.5351ZM43.4651 24.8751C43.4651 24.303 43.928 23.8401 44.5001 23.8401H46.3401V19.1251C46.3401 18.1102 45.515 17.2851 44.5001 17.2851H38.7501C37.7352 17.2851 36.9101 18.1102 36.9101 19.1251V45.0001C36.9101 50.3275 32.5775 54.6601 27.2501 54.6601H24.3751C23.3602 54.6601 22.5351 55.4852 22.5351 56.5001V66.9651H27.2501C27.4945 66.9651 27.7331 67.0513 27.92 67.2123C29.9785 68.9632 31.1572 71.3466 31.1572 73.7501C31.1572 76.1536 29.9756 78.537 27.92 80.2878C27.7331 80.4488 27.4945 80.5351 27.2501 80.5351H22.5351V87.0872H43.4651V24.8751ZM16.7851 56.5001V66.9651H20.4651V56.5001C20.4651 54.3438 22.2188 52.5901 24.3751 52.5901H27.2501C31.4361 52.5901 34.8401 49.1861 34.8401 45.0001V19.1251C34.8401 16.9688 36.5938 15.2151 38.7501 15.2151H44.5001C46.6563 15.2151 48.4101 16.9688 48.4101 19.1251V23.8401H52.0872V19.1251C52.0872 14.9391 48.6832 11.5351 44.4972 11.5351H38.7472C34.5612 11.5351 31.1572 14.942 31.1572 19.1251V45.0001C31.1572 47.1563 29.4035 48.9101 27.2472 48.9101H24.3751C20.1891 48.9101 16.7851 52.3141 16.7851 56.5001ZM14.7151 56.5001C14.7151 52.5642 17.0812 49.1717 20.4651 47.6681V34.5351H11.0351V66.9651H14.718L14.7151 56.5001ZM10.3853 32.4651H21.112C22.9261 30.8148 24.7776 27.5718 24.7776 24.8751C24.7776 22.1783 22.9261 18.9353 21.1148 17.2851H10.3853C8.57409 18.9353 6.72259 22.1783 6.72259 24.8751C6.72259 27.5718 8.57409 30.8148 10.3853 32.4651ZM26.8562 78.4651C28.2621 77.1541 29.0901 75.4147 29.0901 73.7501C29.0901 72.0855 28.2592 70.3461 26.8562 69.0351H4.64396C3.23809 70.3461 2.41009 72.0855 2.41009 73.7501C2.41009 75.4147 3.24096 77.1541 4.64396 78.4651H26.8562ZM11.0351 87.0901H20.4651V80.5351H11.0351V87.0901Z" fill="#617EFF"/>
</svg>
