<svg width="32" height="32" viewBox="0 0 32 32" fill="none" xmlns="http://www.w3.org/2000/svg">
<g clip-path="url(#clip0_326_4268)">
<path d="M30.9996 31.3601H0.999648C0.800648 31.3601 0.639648 31.1991 0.639648 31.0001C0.639648 30.9371 0.656648 30.8681 0.687648 30.8131L2.99265 26.8201C3.05665 26.7091 3.17665 26.6391 3.30465 26.6391H15.6396V22.0001C15.6396 21.8011 15.8006 21.6401 15.9996 21.6401H19.6006L17.0366 17.1911C16.5047 16.2681 16.5066 15.0751 17.0416 14.1541C17.3106 13.6921 17.6936 13.3081 18.1506 13.0441C18.3326 12.9401 18.5216 12.8561 18.7166 12.7921L22.0956 6.94014C22.0026 6.75414 21.9226 6.56114 21.8576 6.36114H15.0726C14.5496 7.53814 13.3696 8.36114 12.0006 8.36114C11.7936 8.36114 11.5906 8.34214 11.3946 8.30614L9.58965 11.4291C9.76365 11.7091 9.89465 12.0181 9.97565 12.3481C10.1796 13.1731 10.0516 14.0251 9.61565 14.7481L8.11765 17.3231C8.01865 17.4961 7.79965 17.5551 7.62665 17.4541L5.49765 16.2251L4.68865 17.6261C5.04165 17.9151 5.30065 18.3031 5.43365 18.7521C5.60965 19.3441 5.54465 19.9661 5.25265 20.5051L4.73165 21.4651C4.68565 21.5271 4.58965 21.6181 4.51565 21.6401L2.95265 22.1031L2.74865 21.4141L4.17365 20.9911L4.62065 20.1621C4.82065 19.7931 4.86465 19.3651 4.74465 18.9581C4.62365 18.5521 4.35365 18.2171 3.98365 18.0171C3.61365 17.8171 3.18665 17.7741 2.77865 17.8931C2.37165 18.0141 2.03765 18.2851 1.83765 18.6551L1.38765 19.4841L1.80765 20.9031L1.11765 21.1081L0.654648 19.5461C0.627648 19.4541 0.637648 19.3561 0.683648 19.2721L1.20465 18.3121C1.49665 17.7741 1.98265 17.3791 2.57365 17.2051C3.07265 17.0551 3.59365 17.0781 4.06765 17.2661L4.87365 15.8691L2.71465 14.6231C2.63165 14.5751 2.57065 14.4951 2.54665 14.4011C2.52265 14.3071 2.53665 14.2081 2.58765 14.1251L4.18465 11.4751C4.62065 10.7521 5.31465 10.2421 6.13965 10.0381C6.50765 9.94814 6.88165 9.92214 7.24365 9.96114L9.11365 6.72314C8.81265 6.21514 8.63965 5.62714 8.63965 5.00014C8.63965 3.14714 10.1466 1.64014 11.9996 1.64014C13.3686 1.64014 14.5486 2.46314 15.0716 3.64014H21.8566C22.4286 1.90014 24.0696 0.640137 25.9996 0.640137C28.4036 0.640137 30.3596 2.59614 30.3596 5.00014C30.3596 7.38914 28.4276 9.33514 26.0456 9.36014L22.7856 15.0071L26.6086 21.6401H28.9996C29.1986 21.6401 29.3596 21.8011 29.3596 22.0001V26.6401H30.9996C31.1986 26.6401 31.3596 26.8011 31.3596 27.0001V31.0001C31.3596 31.1991 31.1986 31.3601 30.9996 31.3601ZM1.61965 30.6401H30.6396V27.3601H3.51265L1.61965 30.6401ZM16.3596 26.6401H28.6396V22.3601H16.3596V26.6401ZM20.4316 21.6401H25.7786L21.6736 14.5171C21.4716 14.1691 21.1826 13.8781 20.8346 13.6771C20.1146 13.2591 19.2236 13.2551 18.5106 13.6681C18.1626 13.8691 17.8696 14.1621 17.6646 14.5151C17.2626 15.2071 17.2616 16.1381 17.6596 16.8311L20.4316 21.6401ZM3.39265 14.1781L7.67565 16.6511L8.99665 14.3811C9.33665 13.8181 9.43465 13.1591 9.27765 12.5211C9.11965 11.8831 8.72565 11.3471 8.16765 11.0101C7.61065 10.6741 6.95065 10.5741 6.31265 10.7321C5.67465 10.8901 5.13765 11.2841 4.80065 11.8421L3.39265 14.1781ZM19.6606 12.6421C20.1896 12.6421 20.7216 12.7791 21.1946 13.0541C21.6506 13.3191 22.0306 13.7001 22.2956 14.1581L22.3696 14.2871L25.2516 9.29714C24.1446 9.10514 23.1796 8.49314 22.5256 7.63314L19.6336 12.6421H19.6606ZM7.97765 10.1251C8.17165 10.1951 8.35965 10.2851 8.53965 10.3941C8.74665 10.5191 8.93565 10.6651 9.10565 10.8291L10.6856 8.09314C10.2696 7.91514 9.89665 7.65614 9.58665 7.33614L7.97765 10.1251ZM25.9996 1.36014C23.9926 1.36014 22.3596 2.99314 22.3596 5.00014C22.3596 7.00714 23.9926 8.64014 25.9996 8.64014C28.0066 8.64014 29.6396 7.00714 29.6396 5.00014C29.6396 2.99314 28.0066 1.36014 25.9996 1.36014ZM11.9996 2.36014C10.5436 2.36014 9.35965 3.54514 9.35965 5.00014C9.35965 6.45514 10.5436 7.64014 11.9996 7.64014C13.4556 7.64014 14.6396 6.45614 14.6396 5.00014C14.6396 3.54414 13.4556 2.36014 11.9996 2.36014ZM15.2986 5.64014H21.6866C21.6556 5.43114 21.6396 5.21714 21.6396 5.00014C21.6396 4.78314 21.6566 4.56914 21.6866 4.36014H15.2986C15.3386 4.56714 15.3596 4.78114 15.3596 5.00014C15.3596 5.21914 15.3386 5.43314 15.2986 5.64014ZM12.4996 5.00014C12.4996 5.27614 12.2756 5.50014 11.9996 5.50014C11.7236 5.50014 11.4996 5.27614 11.4996 5.00014C11.4996 4.72414 11.7236 4.50014 11.9996 4.50014C12.2756 4.50014 12.4996 4.72414 12.4996 5.00014ZM25.9996 4.50014C25.7236 4.50014 25.4996 4.72414 25.4996 5.00014C25.4996 5.27614 25.7236 5.50014 25.9996 5.50014C26.2756 5.50014 26.4996 5.27614 26.4996 5.00014C26.4996 4.72414 26.2756 4.50014 25.9996 4.50014ZM19.4996 15.5001C19.2236 15.5001 18.9996 15.7241 18.9996 16.0001C18.9996 16.2761 19.2236 16.5001 19.4996 16.5001C19.7756 16.5001 19.9996 16.2761 19.9996 16.0001C19.9996 15.7241 19.7756 15.5001 19.4996 15.5001Z" fill="black"/>
</g>
<defs>
<clipPath id="clip0_326_4268">
<rect width="32" height="32" fill="white"/>
</clipPath>
</defs>
</svg>
