<svg width="32" height="32" viewBox="0 0 32 32" fill="none" xmlns="http://www.w3.org/2000/svg">
<g clip-path="url(#clip0_326_4266)">
<path d="M21.8604 4.50014H21.1404V2.50014H21.8614L21.8604 4.50014ZM10.8604 2.50014H10.1404V4.50014H10.8604V2.50014ZM28.8964 15.8251L29.1054 16.5131L28.3064 16.7561C27.5594 16.9761 26.7684 16.5911 26.4714 15.8871L24.0584 17.2811C23.8704 17.4301 23.5464 17.3291 23.4834 17.0931C23.4784 17.0751 23.4754 17.0581 23.4734 17.0401L22.7244 14.2461C22.4954 14.3201 22.2524 14.3601 21.9994 14.3601H21.3604V22.0001C21.3604 22.1991 21.1994 22.3601 21.0004 22.3601H19.3604V28.6671C20.4914 28.8411 21.3604 29.8211 21.3604 31.0001C21.3604 31.1991 21.1994 31.3601 21.0004 31.3601H17.0004C16.8014 31.3601 16.6404 31.1991 16.6404 31.0001C16.6404 29.8211 17.5094 28.8411 18.6404 28.6671V22.3601H13.3604V28.6671C14.4914 28.8411 15.3604 29.8211 15.3604 31.0001C15.3604 31.1991 15.1994 31.3601 15.0004 31.3601H11.0004C10.8014 31.3601 10.6404 31.1991 10.6404 31.0001C10.6404 29.8211 11.5094 28.8411 12.6404 28.6671V22.3601H11.0004C10.8014 22.3601 10.6404 22.1991 10.6404 22.0001V14.3591H9.99938C9.75738 14.3591 9.52338 14.3221 9.30338 14.2551L8.56238 17.0201C8.56138 17.0441 8.55738 17.0691 8.55038 17.0931C8.48838 17.3221 8.18638 17.4271 7.99238 17.2941L5.55738 15.8881C5.26238 16.5931 4.47338 16.9781 3.72638 16.7591L2.89838 16.5151L3.10138 15.8251L3.92938 16.0681C4.35038 16.1921 4.80038 15.9481 4.92438 15.5241C4.98438 15.3201 4.96038 15.1041 4.85738 14.9151C4.75438 14.7261 4.58538 14.5891 4.38138 14.5301L3.90338 14.3901L3.18138 14.8121L2.81738 14.1901L3.67138 13.6901C3.75638 13.6391 3.85838 13.6271 3.95438 13.6551L4.58238 13.8391C4.97138 13.9531 5.29338 14.2131 5.48838 14.5701C5.58338 14.7431 5.64238 14.9301 5.66538 15.1201L7.96938 16.4501L8.64338 13.9321C8.03738 13.5041 7.63938 12.7971 7.63938 12.0001C7.63938 10.6991 8.69838 9.64014 9.99938 9.64014H10.6414V9.00014C10.6414 8.80114 10.8024 8.64014 11.0014 8.64014H15.6414V6.36014H12.0004C11.8014 6.36014 11.6404 6.19914 11.6404 6.00014V1.00014C11.6404 0.801137 11.8014 0.640137 12.0004 0.640137H20.0004C20.1994 0.640137 20.3604 0.801137 20.3604 1.00014V6.00014C20.3604 6.19914 20.1994 6.36014 20.0004 6.36014H16.3604V8.64014H21.0004C21.1994 8.64014 21.3604 8.80114 21.3604 9.00014V9.64014H21.9994C23.3014 9.64014 24.3594 10.6991 24.3594 12.0001C24.3594 12.7861 23.9724 13.4841 23.3804 13.9131L24.0604 16.4501L26.3634 15.1201C26.3864 14.9301 26.4454 14.7441 26.5414 14.5701C26.7364 14.2131 27.0584 13.9531 27.4464 13.8391L28.0724 13.6561C28.1724 13.6261 28.2764 13.6401 28.3624 13.6931L29.1874 14.1931L28.8144 14.8081L28.1254 14.3901L27.6494 14.5291C27.4444 14.5891 27.2754 14.7261 27.1714 14.9151C27.0684 15.1031 27.0444 15.3201 27.1054 15.5241C27.2304 15.9471 27.6794 16.1931 28.1004 16.0671L28.8964 15.8251ZM10.6404 10.3591H9.99938C9.09538 10.3591 8.35938 11.0951 8.35938 11.9991C8.35938 12.9031 9.09538 13.6391 9.99938 13.6391H10.6414L10.6404 10.3591ZM13.0004 29.3601C12.2194 29.3601 11.5644 29.9081 11.4004 30.6391H14.6004C14.4364 29.9081 13.7814 29.3601 13.0004 29.3601ZM19.6404 5.64014V1.36014H12.3604V5.64014H19.6404ZM19.0004 29.3601C18.2204 29.3601 17.5644 29.9081 17.3994 30.6391H20.6004C20.4364 29.9081 19.7804 29.3601 19.0004 29.3601ZM20.6404 9.36014H11.3604V21.6401H20.6404V9.36014ZM23.6394 12.0001C23.6394 11.0961 22.9044 10.3601 21.9994 10.3601H21.3604V13.6401H21.9994C22.9034 13.6401 23.6394 12.9041 23.6394 12.0001ZM18.3604 3.50014C18.3604 4.25014 17.7504 4.86014 17.0004 4.86014H15.0004C14.2504 4.86014 13.6404 4.25014 13.6404 3.50014C13.6404 2.75014 14.2504 2.14014 15.0004 2.14014H17.0004C17.7504 2.14014 18.3604 2.75014 18.3604 3.50014ZM17.6404 3.50014C17.6404 3.14714 17.3534 2.86014 17.0004 2.86014H15.0004C14.6474 2.86014 14.3604 3.14714 14.3604 3.50014C14.3604 3.85314 14.6474 4.14014 15.0004 4.14014H17.0004C17.3534 4.14014 17.6404 3.85314 17.6404 3.50014Z" fill="black"/>
</g>
<defs>
<clipPath id="clip0_326_4266">
<rect width="32" height="32" fill="white"/>
</clipPath>
</defs>
</svg>
