<svg width="32" height="32" viewBox="0 0 32 32" fill="none" xmlns="http://www.w3.org/2000/svg">
<g clip-path="url(#clip0_326_4265)">
<path d="M9.00165 31.3601C6.59765 31.3601 4.64165 29.4041 4.64165 27.0001C4.64165 24.5961 6.59765 22.6401 9.00165 22.6401C9.73265 22.6401 10.4216 22.8221 11.0276 23.1401L13.1526 19.8021L13.7596 20.1891L11.6346 23.5281C12.6826 24.3251 13.3616 25.5851 13.3616 27.0011C13.3616 29.4041 11.4066 31.3601 9.00165 31.3601ZM9.00165 23.3601C6.99465 23.3601 5.36165 24.9931 5.36165 27.0001C5.36165 29.0071 6.99465 30.6401 9.00165 30.6401C11.0086 30.6401 12.6416 29.0071 12.6416 27.0001C12.6416 24.9931 11.0096 23.3601 9.00165 23.3601ZM16.0016 31.3551C15.1406 31.3551 14.2796 31.2841 13.4446 31.1431L13.5636 30.4321C14.3596 30.5671 15.1806 30.6341 16.0016 30.6341C20.6496 30.6341 24.9186 28.5001 27.7136 24.7801L28.2896 25.2121C25.3577 29.1161 20.8786 31.3551 16.0016 31.3551ZM30.9996 24.8601C30.9376 24.8601 30.8736 24.8431 30.8176 24.8101L24.8226 21.3051C24.7126 21.2411 24.6436 21.1221 24.6436 20.9941C24.6436 20.8661 24.7116 20.7481 24.8226 20.6831L30.8176 17.1881C30.9307 17.1231 31.0667 17.1231 31.1786 17.1861C31.2896 17.2501 31.3596 17.3701 31.3596 17.4981V24.4981C31.3596 24.6271 31.2906 24.7461 31.1776 24.8101C31.1236 24.8441 31.0616 24.8601 30.9996 24.8601ZM25.7186 20.9951L30.6396 23.8721V18.1271L25.7186 20.9951ZM3.34465 24.6991C2.79065 23.8961 2.31065 23.0341 1.91965 22.1391L2.57965 21.8501C2.95265 22.7041 3.40865 23.5251 3.93665 24.2901L3.34465 24.6991ZM3.12565 20.4771C3.03365 20.4771 2.94165 20.4421 2.87165 20.3721L0.745648 18.2561C0.677648 18.1881 0.639648 18.0961 0.639648 18.0001C0.639648 17.9051 0.677648 17.8131 0.744648 17.7451L2.87065 15.6201C3.01165 15.4791 3.23865 15.4791 3.37965 15.6201L5.50165 17.7411C5.56965 17.8081 5.60665 17.9001 5.60665 17.9961C5.60665 18.0921 5.56965 18.1831 5.50165 18.2501L3.37965 20.3711C3.30965 20.4411 3.21765 20.4771 3.12565 20.4771ZM1.50965 17.9991L3.12565 19.6071L4.73865 17.9951L3.12665 16.3831L1.50965 17.9991ZM8.76065 20.1761C8.02865 18.9101 7.64165 17.4651 7.64165 15.9951C7.64165 12.1761 10.2216 8.84614 13.9156 7.89714L14.0946 8.59414C10.7196 9.46114 8.36165 12.5041 8.36165 15.9941C8.36165 17.3371 8.71565 18.6581 9.38365 19.8131L8.76065 20.1761ZM16.0016 19.3551C14.1486 19.3551 12.6416 17.8471 12.6416 15.9951C12.6416 14.2631 13.9586 12.8331 15.6436 12.6541V6.99514H16.3636V12.6541C18.0466 12.8361 19.3616 14.2641 19.3616 15.9951C19.3616 17.8481 17.8536 19.3551 16.0016 19.3551ZM16.0016 13.3551C14.5456 13.3551 13.3616 14.5401 13.3616 15.9951C13.3616 17.4511 14.5466 18.6351 16.0016 18.6351C17.4566 18.6351 18.6406 17.4511 18.6406 15.9951C18.6416 14.5401 17.4576 13.3551 16.0016 13.3551ZM30.6406 15.0191C30.2087 8.45914 25.3946 2.96214 18.9336 1.64914L19.0766 0.943137C25.8556 2.32014 30.9067 8.08914 31.3596 14.9721L30.6406 15.0191ZM24.0046 14.3551C23.9426 14.3551 23.8806 14.3391 23.8246 14.3071L21.2256 12.8071C21.1146 12.7431 21.0446 12.6231 21.0446 12.4951V9.49514C21.0446 9.36714 21.1136 9.24714 21.2256 9.18314L23.8246 7.68314C23.9356 7.62014 24.0726 7.61914 24.1836 7.68314L26.7816 9.18314C26.8926 9.24714 26.9626 9.36614 26.9626 9.49514V12.4951C26.9626 12.6231 26.8936 12.7431 26.7816 12.8071L24.1836 14.3071C24.1286 14.3391 24.0666 14.3551 24.0046 14.3551ZM21.7666 12.2871L24.0046 13.5791L26.2416 12.2871V9.70314L24.0046 8.41114L21.7666 9.70314V12.2871ZM15.9976 4.36014C14.9736 4.36014 14.1406 3.52414 14.1406 2.49514C14.1406 1.47214 14.9736 0.640137 15.9976 0.640137C17.0246 0.640137 17.8606 1.47214 17.8606 2.49514C17.8596 3.52314 17.0236 4.36014 15.9976 4.36014ZM15.9976 1.36014C15.3706 1.36014 14.8596 1.86914 14.8596 2.49514C14.8596 3.12614 15.3696 3.64014 15.9976 3.64014C16.6276 3.64014 17.1396 3.12614 17.1396 2.49514C17.1396 1.86914 16.6266 1.36014 15.9976 1.36014ZM1.03465 15.3481C1.02665 15.3481 1.01765 15.3481 1.00965 15.3471C0.811648 15.3321 0.662648 15.1701 0.676648 14.9721C0.676648 14.9721 0.677648 14.9511 0.677648 14.9501C0.693648 14.7521 0.862649 14.5971 1.06465 14.6191C1.26265 14.6341 1.41065 14.8071 1.39565 15.0061C1.38065 15.1941 1.22165 15.3481 1.03465 15.3481ZM1.30165 12.9971H1.31065H1.30165ZM1.83565 11.0501H1.84465H1.83565ZM2.62665 9.54214C2.57265 9.54214 2.51865 9.53014 2.46765 9.50314C2.29265 9.41314 2.21865 9.20814 2.30765 9.03214C2.30865 9.02914 2.31965 9.00814 2.32165 9.00414C2.41565 8.82914 2.63265 8.76414 2.80965 8.85814C2.98465 8.95214 3.04965 9.17014 2.95565 9.34614C2.88965 9.46914 2.75965 9.54214 2.62665 9.54214ZM4.92565 6.23114C4.83765 6.23114 4.74965 6.20014 4.68165 6.13614C4.53965 6.00214 4.52465 5.78614 4.65465 5.64114C4.65965 5.63714 4.67765 5.61814 4.68265 5.61314C4.82365 5.47214 5.05065 5.47214 5.19165 5.61314C5.33265 5.75414 5.33265 5.98114 5.19165 6.12214C5.11965 6.19414 5.02165 6.23114 4.92565 6.23114ZM3.66665 7.80314C3.57865 7.80314 3.49065 7.77214 3.42265 7.70814C3.28065 7.57414 3.26565 7.35814 3.39565 7.21314C3.39965 7.20814 3.41765 7.18914 3.42265 7.18514C3.56365 7.04414 3.79065 7.04414 3.93165 7.18514C4.07265 7.32614 4.07265 7.55314 3.93165 7.69414C3.86065 7.76614 3.76265 7.80314 3.66665 7.80314ZM1.83065 11.4011C1.74265 11.4011 1.65465 11.3701 1.58665 11.3061C1.44465 11.1721 1.42965 10.9561 1.55965 10.8111C1.56365 10.8061 1.58165 10.7871 1.58665 10.7831C1.72765 10.6421 1.95465 10.6421 2.09565 10.7831C2.23665 10.9241 2.23665 11.1511 2.09565 11.2921C2.02365 11.3631 1.92665 11.4011 1.83065 11.4011ZM1.29565 13.3481C1.20765 13.3481 1.11965 13.3171 1.05165 13.2531C0.909648 13.1191 0.894648 12.9031 1.02465 12.7581C1.02865 12.7531 1.04665 12.7341 1.05165 12.7301C1.19265 12.5891 1.41965 12.5891 1.56065 12.7301C1.70165 12.8711 1.70165 13.0981 1.56065 13.2391C1.48965 13.3111 1.39165 13.3481 1.29565 13.3481ZM16.4096 24.3501C16.3216 24.3501 16.2336 24.3191 16.1656 24.2551C16.0236 24.1211 16.0086 23.9051 16.1386 23.7601C16.1426 23.7551 16.1606 23.7361 16.1656 23.7321C16.3066 23.5911 16.5336 23.5911 16.6746 23.7321C16.8156 23.8731 16.8156 24.1001 16.6746 24.2411C16.6026 24.3131 16.5056 24.3501 16.4096 24.3501ZM18.4166 23.9831C18.3286 23.9831 18.2407 23.9521 18.1726 23.8881C18.0306 23.7541 18.0156 23.5381 18.1456 23.3931C18.1496 23.3881 18.1677 23.3691 18.1726 23.3651C18.3137 23.2241 18.5406 23.2241 18.6816 23.3651C18.8226 23.5061 18.8226 23.7331 18.6816 23.8741C18.6096 23.9461 18.5126 23.9831 18.4166 23.9831ZM21.7966 21.8831C21.7087 21.8831 21.6206 21.8521 21.5526 21.7881C21.4106 21.6541 21.3956 21.4381 21.5256 21.2931C21.5296 21.2881 21.5476 21.2691 21.5526 21.2651C21.6936 21.1241 21.9206 21.1241 22.0616 21.2651C22.2027 21.4061 22.2027 21.6331 22.0616 21.7741C21.9896 21.8461 21.8927 21.8831 21.7966 21.8831ZM23.7416 18.3861C23.6537 18.3861 23.5656 18.3551 23.4976 18.2911C23.3556 18.1571 23.3407 17.9411 23.4706 17.7961C23.4746 17.7911 23.4926 17.7721 23.4976 17.7681C23.6386 17.6271 23.8656 17.6271 24.0066 17.7681C24.1476 17.9091 24.1476 18.1361 24.0066 18.2771C23.9356 18.3491 23.8386 18.3861 23.7416 18.3861ZM6.37465 4.85514C6.27565 4.85514 6.17765 4.81314 6.10565 4.73214C5.97265 4.58514 5.99165 4.35214 6.13965 4.21914C6.14865 4.21114 6.17365 4.19014 6.18365 4.18314C6.34465 4.06614 6.56965 4.10214 6.68665 4.26214C6.80365 4.42314 6.76865 4.64814 6.60765 4.76514C6.54065 4.82614 6.45765 4.85514 6.37465 4.85514ZM9.79965 2.69214C9.65965 2.69214 9.52465 2.61414 9.46565 2.48114C9.38865 2.30514 9.45365 2.10314 9.62465 2.01814C9.63465 2.01314 9.66365 1.99914 9.67465 1.99614C9.86065 1.92514 10.0686 2.01714 10.1396 2.20314C10.2106 2.38914 10.1186 2.59714 9.93265 2.66814C9.89065 2.68414 9.84465 2.69214 9.79965 2.69214ZM8.02765 3.64314C7.88765 3.64314 7.75265 3.56514 7.69365 3.43214C7.61565 3.25614 7.68065 3.05414 7.85265 2.96914C7.86265 2.96414 7.89165 2.95014 7.90265 2.94714C8.08865 2.87614 8.29665 2.96814 8.36765 3.15414C8.43865 3.34014 8.34665 3.54814 8.16065 3.61914C8.11765 3.63514 8.07265 3.64314 8.02765 3.64314ZM11.6896 1.98314C11.5346 1.98314 11.3866 1.88614 11.3386 1.73214C11.2796 1.54214 11.3776 1.34314 11.5676 1.28514L11.5866 1.27914C11.7736 1.22114 11.9776 1.32714 12.0366 1.51714C12.0946 1.70714 11.9886 1.90914 11.7986 1.96714C11.7626 1.97814 11.7266 1.98314 11.6896 1.98314ZM14.4436 24.2041C14.4246 24.2041 14.4066 24.2021 14.3876 24.1991C14.3726 24.1971 14.3386 24.1901 14.3236 24.1851C14.1326 24.1311 14.0216 23.9311 14.0766 23.7411C14.1306 23.5501 14.3286 23.4371 14.5216 23.4941C14.7176 23.5231 14.8406 23.7051 14.8106 23.9011C14.7826 24.0791 14.6196 24.2041 14.4436 24.2041ZM20.2426 23.1411C20.1206 23.1411 20.0016 23.0791 19.9336 22.9661C19.8306 22.7951 19.8866 22.5741 20.0566 22.4721C20.2226 22.3701 20.4496 22.4171 20.5546 22.5821C20.6586 22.7481 20.6206 22.9611 20.4576 23.0691C20.4536 23.0721 20.4326 23.0861 20.4276 23.0891C20.3696 23.1241 20.3066 23.1411 20.2426 23.1411ZM22.9946 20.2431C22.9256 20.2431 22.8556 20.2231 22.7956 20.1821C22.6296 20.0721 22.5846 19.8481 22.6946 19.6831C22.7836 19.5031 22.9977 19.4461 23.1716 19.5321C23.3496 19.6221 23.4156 19.8481 23.3266 20.0261C23.3196 20.0401 23.3026 20.0701 23.2946 20.0821C23.2256 20.1871 23.1106 20.2431 22.9946 20.2431ZM24.0016 16.3751C23.8027 16.3751 23.6416 16.2141 23.6416 16.0151C23.6416 15.8161 23.8027 15.6451 24.0016 15.6451C24.2006 15.6451 24.3616 15.7961 24.3616 15.9951V16.0151C24.3616 16.2141 24.2006 16.3751 24.0016 16.3751Z" fill="black"/>
</g>
<defs>
<clipPath id="clip0_326_4265">
<rect width="32" height="32" fill="white"/>
</clipPath>
</defs>
</svg>
