<svg width="48" height="48" viewBox="0 0 48 48" fill="none" xmlns="http://www.w3.org/2000/svg">
<path d="M36 42H8C7.46957 42 6.96086 41.7893 6.58579 41.4142C6.21071 41.0391 6 40.5304 6 40V8C6 7.46957 6.21071 6.96086 6.58579 6.58579C6.96086 6.21071 7.46957 6 8 6H36C36.5304 6 37.0391 6.21071 37.4142 6.58579C37.7893 6.96086 38 7.46957 38 8V40C38 40.5304 37.7893 41.0391 37.4142 41.4142C37.0391 41.7893 36.5304 42 36 42ZM42 14H38V18H42V14ZM42 26H38V30H42V26ZM22 16C21.2089 16 20.4355 16.2346 19.7777 16.6741C19.1199 17.1136 18.6072 17.7384 18.3045 18.4693C18.0017 19.2002 17.9225 20.0044 18.0769 20.7804C18.2312 21.5563 18.6122 22.269 19.1716 22.8284C19.731 23.3878 20.4437 23.7688 21.2196 23.9231C21.9956 24.0775 22.7998 23.9983 23.5307 23.6955C24.2616 23.3928 24.8864 22.8801 25.3259 22.2223C25.7654 21.5645 26 20.7911 26 20C26 18.9391 25.5786 17.9217 24.8284 17.1716C24.0783 16.4214 23.0609 16 22 16V16ZM28 30C28 28.4087 27.3679 26.8826 26.2426 25.7574C25.1174 24.6321 23.5913 24 22 24C20.4087 24 18.8826 24.6321 17.7574 25.7574C16.6321 26.8826 16 28.4087 16 30V32H28V30Z" stroke="black" stroke-width="4" stroke-linecap="round" stroke-linejoin="round"/>
</svg>
