<svg width="32" height="32" viewBox="0 0 32 32" fill="none" xmlns="http://www.w3.org/2000/svg">
<path d="M27.9997 19.9999V25.2399C28.0038 25.6252 27.9244 26.0067 27.7668 26.3583C27.6093 26.7099 27.3775 27.0232 27.0874 27.2766C26.7972 27.5301 26.4555 27.7176 26.0859 27.8263C25.7163 27.9351 25.3276 27.9625 24.9464 27.9066C19.6623 27.2278 14.7543 24.8102 10.9957 21.0346C7.23705 17.2591 4.84146 12.3403 4.18639 7.05325C4.13069 6.67319 4.15775 6.28557 4.26573 5.91693C4.37371 5.54829 4.56006 5.20733 4.81202 4.91739C5.06398 4.62744 5.37561 4.39535 5.72558 4.237C6.07555 4.07865 6.4556 3.99778 6.83973 3.99992H11.9997C12.3293 3.99792 12.648 4.11809 12.8942 4.33723C13.1405 4.55638 13.2968 4.85896 13.3331 5.18659C13.4654 6.93402 13.9173 8.64232 14.6664 10.2266C14.7948 10.5266 14.8088 10.8634 14.7056 11.173C14.6024 11.4826 14.3892 11.7436 14.1064 11.9066L12.9597 12.5599C12.7944 12.6508 12.6503 12.7758 12.5369 12.9265C12.4235 13.0772 12.3433 13.2503 12.3017 13.4343C12.2602 13.6182 12.2581 13.809 12.2957 13.9938C12.3332 14.1787 12.4096 14.3534 12.5197 14.5066C13.8388 16.4388 15.5075 18.1075 17.4397 19.4266C17.5929 19.5367 17.7676 19.6131 17.9525 19.6506C18.1373 19.6882 18.3281 19.6861 18.5121 19.6446C18.696 19.603 18.8691 19.5228 19.0198 19.4094C19.1705 19.296 19.2955 19.1519 19.3864 18.9866L20.0397 17.8399C20.2124 17.5534 20.4865 17.3423 20.8076 17.2485C21.1286 17.1546 21.4733 17.1849 21.7731 17.3333C23.3573 18.0823 25.0656 18.5343 26.8131 18.6666C27.1407 18.7028 27.4433 18.8592 27.6624 19.1054C27.8816 19.3516 28.0017 19.6703 27.9997 19.9999Z" stroke="#3E5BDB" stroke-width="2.28571" stroke-linecap="round" stroke-linejoin="round"/>
</svg>
