<svg width="48" height="48" viewBox="0 0 48 48" fill="none" xmlns="http://www.w3.org/2000/svg">
<path d="M24.1004 16H23.9004" stroke="black" stroke-width="5.2" stroke-linecap="round" stroke-linejoin="round"/>
<path d="M24 26V32M6 24C6 19.2261 7.89642 14.6477 11.2721 11.2721C14.6477 7.89642 19.2261 6 24 6V6C28.7739 6 33.3523 7.89642 36.7279 11.2721C40.1036 14.6477 42 19.2261 42 24V24C42 28.7739 40.1036 33.3523 36.7279 36.7279C33.3523 40.1036 28.7739 42 24 42V42C19.2261 42 14.6477 40.1036 11.2721 36.7279C7.89642 33.3523 6 28.7739 6 24V24Z" stroke="black" stroke-width="4" stroke-linecap="round" stroke-linejoin="round"/>
</svg>
