<svg width="18" height="19" viewBox="0 0 18 19" fill="none" xmlns="http://www.w3.org/2000/svg">
<path d="M12.75 4.25V2.75M3.75 14.75V16.25L2.25 14.75H3.75ZM2.25 4.25V14.75L3.75 16.25H15C15.1989 16.25 15.3897 16.171 15.5303 16.0303C15.671 15.8897 15.75 15.6989 15.75 15.5V4.25C15.75 4.05109 15.671 3.86032 15.5303 3.71967C15.3897 3.57902 15.1989 3.5 15 3.5H3C2.80109 3.5 2.61032 3.57902 2.46967 3.71967C2.32902 3.86032 2.25 4.05109 2.25 4.25V4.25ZM3 3.5H15C15.1989 3.5 15.3897 3.57902 15.5303 3.71967C15.671 3.86032 15.75 4.05109 15.75 4.25V7.25H2.25V4.25C2.25 4.05109 2.32902 3.86032 2.46967 3.71967C2.61032 3.57902 2.80109 3.5 3 3.5V3.5ZM5.25 4.25V2.75V4.25ZM9 4.25V2.75V4.25Z" stroke="#617EFF" stroke-width="1.5" stroke-linecap="round" stroke-linejoin="round"/>
</svg>
