<svg width="48" height="48" viewBox="0 0 48 48" fill="none" xmlns="http://www.w3.org/2000/svg">
<path d="M41.9996 30.0001V37.8601C42.0057 38.4379 41.8865 39.0102 41.6503 39.5376C41.414 40.065 41.0663 40.535 40.631 40.9151C40.1958 41.2953 39.6833 41.5766 39.1289 41.7397C38.5745 41.9028 37.9914 41.9439 37.4196 41.8601C29.4935 40.8419 22.1315 37.2155 16.4935 31.5522C10.8556 25.8889 7.2622 18.5106 6.27959 10.5801C6.19603 10.01 6.23663 9.42854 6.3986 8.87558C6.56057 8.32262 6.84009 7.81118 7.21803 7.37626C7.59597 6.94134 8.06342 6.59321 8.58837 6.35569C9.11333 6.11816 9.68341 5.99685 10.2596 6.00006H17.9996C18.494 5.99706 18.972 6.17732 19.3414 6.50603C19.7107 6.83475 19.9452 7.28862 19.9996 7.78006C20.1981 10.4012 20.876 12.9637 21.9996 15.3401C22.1923 15.7901 22.2132 16.2952 22.0584 16.7597C21.9035 17.2241 21.5838 17.6156 21.1596 17.8601L19.4396 18.8401C19.1917 18.9764 18.9755 19.1638 18.8054 19.3899C18.6352 19.616 18.515 19.8756 18.4526 20.1516C18.3902 20.4276 18.3871 20.7136 18.4435 20.9909C18.4999 21.2682 18.6144 21.5303 18.7796 21.7601C20.7582 24.6584 23.2612 27.1614 26.1596 29.1401C26.3893 29.3052 26.6515 29.4198 26.9287 29.4762C27.206 29.5325 27.4921 29.5294 27.7681 29.467C28.0441 29.4046 28.3037 29.2844 28.5297 29.1143C28.7558 28.9442 28.9432 28.728 29.0796 28.4801L30.0596 26.7601C30.3186 26.3303 30.7297 26.0137 31.2113 25.8729C31.6929 25.7321 32.2099 25.7775 32.6596 26.0001C35.036 27.1237 37.5984 27.8016 40.2196 28.0001C40.711 28.0544 41.1649 28.2889 41.4936 28.6583C41.8223 29.0276 42.0026 29.5056 41.9996 30.0001Z" stroke="black" stroke-width="4" stroke-linecap="round" stroke-linejoin="round"/>
</svg>
