<svg width="48" height="48" viewBox="0 0 48 48" fill="none" xmlns="http://www.w3.org/2000/svg">
<path d="M42 42L30 30M34 20C34 22.7689 33.1789 25.4757 31.6406 27.778C30.1022 30.0803 27.9157 31.8747 25.3576 32.9343C22.7994 33.9939 19.9845 34.2712 17.2687 33.731C14.553 33.1908 12.0584 31.8574 10.1005 29.8995C8.14258 27.9416 6.80921 25.447 6.26901 22.7313C5.72882 20.0155 6.00607 17.2006 7.06569 14.6424C8.12532 12.0843 9.91973 9.89777 12.222 8.35943C14.5243 6.82109 17.2311 6 20 6C23.713 6 27.274 7.475 29.8995 10.1005C32.525 12.726 34 16.287 34 20V20Z" stroke="black" stroke-width="4" stroke-linecap="round" stroke-linejoin="round"/>
</svg>
