<svg width="32" height="32" viewBox="0 0 32 32" fill="none" xmlns="http://www.w3.org/2000/svg">
<path d="M24 28H5.33333C4.97971 28 4.64057 27.8595 4.39052 27.6095C4.14048 27.3594 4 27.0203 4 26.6667V5.33333C4 4.97971 4.14048 4.64057 4.39052 4.39052C4.64057 4.14048 4.97971 4 5.33333 4H24C24.3536 4 24.6928 4.14048 24.9428 4.39052C25.1929 4.64057 25.3333 4.97971 25.3333 5.33333V26.6667C25.3333 27.0203 25.1929 27.3594 24.9428 27.6095C24.6928 27.8595 24.3536 28 24 28ZM28 9.33333H25.3333V12H28V9.33333ZM28 17.3333H25.3333V20H28V17.3333ZM14.6667 10.6667C14.1392 10.6667 13.6237 10.8231 13.1851 11.1161C12.7466 11.4091 12.4048 11.8256 12.203 12.3128C12.0012 12.8001 11.9483 13.3363 12.0512 13.8536C12.1541 14.3709 12.4081 14.846 12.781 15.219C13.154 15.5919 13.6291 15.8459 14.1464 15.9488C14.6637 16.0517 15.1999 15.9988 15.6872 15.797C16.1744 15.5952 16.5909 15.2534 16.8839 14.8149C17.1769 14.3763 17.3333 13.8607 17.3333 13.3333C17.3333 12.6261 17.0524 11.9478 16.5523 11.4477C16.0522 10.9476 15.3739 10.6667 14.6667 10.6667V10.6667ZM18.6667 20C18.6667 18.9391 18.2452 17.9217 17.4951 17.1716C16.7449 16.4214 15.7275 16 14.6667 16C13.6058 16 12.5884 16.4214 11.8382 17.1716C11.0881 17.9217 10.6667 18.9391 10.6667 20V21.3333H18.6667V20Z" stroke="#3E5BDB" stroke-width="2.28571" stroke-linecap="round" stroke-linejoin="round"/>
</svg>
