<svg width="94" height="100" viewBox="0 0 94 100" fill="none" xmlns="http://www.w3.org/2000/svg">
<path d="M49.25 85.4374L39.1875 75.8749L29.8125 66.9999L42.3125 65.1874L56.375 63.1874L58.1875 59.6249C58.15 59.6249 58.1062 59.6249 58.0625 59.6249C55.05 59.6249 52.5375 57.4999 51.9437 54.6624C51.9375 50.8062 56.9375 52.0562 60.875 45.5562C61.375 45.4312 78.5 -0.00634766 43.5 -0.00634766C8.5 -0.00634766 25.625 45.4312 25.625 45.4312C29.5625 51.6812 34.625 50.7437 34.5625 54.4937C34.5 58.2437 29.9375 59.4937 25.625 59.9312C18.5 60.7437 12.25 59.1187 6 70.9312C2.25 77.7437 0.6875 99.9937 0.6875 99.9937H46.6875V98.9312L49.25 85.4374Z" fill="url(#paint0_linear_1387_1014)"/>
<path d="M66.75 99.9999H70.25L68.5 99.1249L66.75 99.9999Z" fill="url(#paint1_linear_1387_1014)"/>
<path d="M68.5 92.0624L83.9375 99.9999L81 83.1874L93.5 71.3124L76.25 68.8749L68.5 53.5624L60.75 68.8749L43.5 71.3124L56 83.1874L53.0625 99.9999L68.5 92.0624Z" fill="url(#paint2_linear_1387_1014)"/>
<defs>
<linearGradient id="paint0_linear_1387_1014" x1="11.5" y1="30.9995" x2="81.5" y2="126" gradientUnits="userSpaceOnUse">
<stop stop-color="#3E5BDB"/>
<stop offset="1" stop-color="#FFB200"/>
</linearGradient>
<linearGradient id="paint1_linear_1387_1014" x1="11.5" y1="30.9995" x2="81.5" y2="126" gradientUnits="userSpaceOnUse">
<stop stop-color="#3E5BDB"/>
<stop offset="1" stop-color="#FFB200"/>
</linearGradient>
<linearGradient id="paint2_linear_1387_1014" x1="11.5" y1="30.9995" x2="81.5" y2="126" gradientUnits="userSpaceOnUse">
<stop stop-color="#3E5BDB"/>
<stop offset="1" stop-color="#FFB200"/>
</linearGradient>
</defs>
</svg>
