<svg width="101" height="101" viewBox="0 0 101 101" fill="none" xmlns="http://www.w3.org/2000/svg">
<path d="M50.5 0.5C22.8875 0.5 0.5 22.8875 0.5 50.5C0.5 78.1125 22.8875 100.5 50.5 100.5C78.1125 100.5 100.5 78.1125 100.5 50.5C100.5 22.8875 78.1125 0.5 50.5 0.5ZM93 59.875C93 63 88.625 64 80.5 66.125C81.275 62.4437 81.7875 58.1438 81.9313 53.75L94.4375 53.625C94.4375 55.875 93.9375 56.75 93.4375 59.875H93ZM8 59.875C7.375 56.75 7.0625 55.875 6.75 53.625H19.25C19.4 58.1437 19.9125 62.4438 20.775 66.6188C12.375 64 8 63 8 59.875ZM8 41.125C8 38 12.375 37 20.5 34.875C19.7812 38.5875 19.3312 42.9 19.25 47.3062L6.75 47.375C6.75 45.125 7.25 44.25 7.75 41.125H8ZM53.625 31.75C60.6875 31.8312 67.5375 32.4188 74.2375 33.4813C74.5312 37.5 75.2687 42.2937 75.4937 47.225L53.625 47.3812V31.75ZM53.625 25.5V7.125C60.9375 8.8125 67.375 16.3125 71.375 26.8125C66.15 26.0875 60.0062 25.6125 53.7687 25.5H53.625ZM47.375 7.125V25.5C41.0187 25.5938 34.8688 26.0438 28.825 26.8375C33.625 16.3125 40.0625 8.8125 47.375 7.125ZM47.375 31.75V47.375H25.5C25.6938 42.3375 26.3875 37.5562 27.5375 32.9562C33.3625 32.4562 40.2563 31.85 47.275 31.75H47.375ZM25.5 53.625H47.375V69.25C40.3125 69.1687 33.4625 68.5812 26.7625 67.5187C26.4688 63.5 25.7313 58.7063 25.5063 53.775L25.5 53.625ZM47.375 75.5V93.875C40.0625 92.1875 33.625 84.6875 29.625 74.1875C34.85 74.9125 40.9938 75.3875 47.2313 75.5H47.375ZM53.625 93.875V75.5C59.9813 75.4062 66.1313 74.9562 72.175 74.1625C67.375 84.6875 60.9375 92.1875 53.625 93.875ZM53.625 69.25V53.625H75.5C75.3063 58.6625 74.6125 63.4438 73.4625 68.0438C67.6375 68.5438 60.7437 69.15 53.725 69.25H53.625ZM94.25 47.375H81.75C81.6 42.8563 81.0875 38.5562 80.225 34.3812C88.6875 36.875 92.8125 37.875 92.8125 41.125C93.625 44.25 93.9375 45.125 94.25 47.375ZM89.875 31.1875C86.7125 29.9125 82.9625 28.8125 79.0875 28.0625C76.8313 21.6937 74.0312 16.2 70.4062 11.3625C78.875 15.9 85.4875 22.6812 89.575 30.9312L89.875 31.1875ZM30.75 11.5C27.2 16.2 24.3813 21.6938 22.5938 27.6313C18.225 28.8125 14.475 29.9125 10.8813 31.3375C15.575 22.65 22.275 15.8687 30.5 11.6125L30.75 11.5ZM11.3125 69.8125C14.475 71.0875 18.225 72.1875 22.1 72.9375C24.3563 79.3063 27.1562 84.8 30.7812 89.6375C22.2375 85.125 15.5562 78.3438 11.425 70.0687L11.3125 69.8125ZM70.3125 89.5C73.8375 84.7937 76.6375 79.3063 78.4062 73.3688C82.775 72.1875 86.525 71.0875 90.1188 69.6625C85.425 78.35 78.725 85.1312 70.5 89.3875L70.3125 89.5Z" fill="url(#paint0_linear_1387_3780)"/>
<defs>
<linearGradient id="paint0_linear_1387_3780" x1="12.1498" y1="31.5039" x2="80.4434" y2="131.372" gradientUnits="userSpaceOnUse">
<stop stop-color="#3E5BDB"/>
<stop offset="1" stop-color="#FFB200"/>
</linearGradient>
</defs>
</svg>
