<svg width="101" height="100" viewBox="0 0 101 100" fill="none" xmlns="http://www.w3.org/2000/svg">
<g clip-path="url(#clip0_1387_1025)">
<path d="M81.75 18.75C78.3875 21.9688 74.3437 24.5 69.8625 26.1125C65.1875 26.9375 52.25 20.9375 45.875 27.0625C44.8125 28.125 43.5 29.1875 42.125 30.25C39.125 28.9375 34.5 26.9375 31.125 25C27.75 23.0625 19.25 18.75 19.25 18.75L0.5 40.625C0.5 40.625 5.125 46.875 8 51C9.875 53.75 12.1875 57.9375 13.6875 60.75L11.5625 63.25C11.2 63.9688 10.9813 64.8125 10.9813 65.7062C10.9813 67.175 11.5562 68.5125 12.5 69.5C13.3625 70.1437 14.4438 70.5312 15.625 70.5312C16.8062 70.5312 17.8875 70.1437 18.7625 69.4875C18.175 70.1688 17.8312 71.0438 17.8312 72C17.8312 73.2063 18.3813 74.2812 19.2437 74.9937C20.1437 75.525 21.225 75.8375 22.375 75.8375C23.525 75.8375 24.6063 75.525 25.5312 74.9812C24.8312 75.85 24.425 76.9375 24.425 78.125C24.425 79.3125 24.8312 80.4 25.5125 81.2625C26.1312 81.4813 26.85 81.6125 27.6 81.6125C28.8938 81.6125 30.0938 81.2187 31.0875 80.55C30.8188 81.1437 30.6812 81.8187 30.6812 82.5312C30.6812 83.9938 31.2812 85.3125 32.2562 86.25C33.0687 86.6188 34.025 86.8312 35.025 86.8312C36.4375 86.8312 37.7562 86.4062 38.8438 85.675L42.0687 82.7562C45.0187 85.6937 49.0875 87.5125 53.5812 87.5125C53.7062 87.5125 53.8375 87.5125 53.9625 87.5063C57.05 87.2438 59.6375 85.2812 60.8 82.5625C61.7125 82.9125 62.75 83.15 63.85 83.15C65.325 83.15 66.6937 82.725 67.85 81.9938C71.5062 79.575 70.6312 77.7 70.6312 77.7C71.4125 78.0438 72.3187 78.2438 73.275 78.2438C75.2812 78.2438 77.0875 77.3563 78.3125 75.9562C79.4125 74.825 80.0812 73.2875 80.0812 71.6C80.0812 70.4125 79.75 69.3062 79.175 68.3625C79.225 68.3937 79.2688 68.3937 79.3063 68.3937C81.9375 68.3937 84.225 66.9438 85.4187 64.8063C85.8438 63.7375 86.075 62.5375 86.075 61.2875C86.075 59.15 85.3875 57.1688 84.225 55.5563L84.2438 55.5875C89.3688 54.5875 89.1813 52.025 91.6813 48.275C94.0813 45.1875 97.0062 42.6375 100.35 40.725L81.75 18.75ZM81.4375 62.875C78.6875 65.625 76.5625 64.4375 71.875 60.875C67.1875 57.3125 57.875 50.625 57.875 50.625C58.2562 52.5312 59.1375 54.1875 60.3813 55.5062C62.375 57.75 68.3125 62.875 71.125 65.5C72.875 67.125 77.375 70.375 74.75 72.875C72.125 75.375 70.0625 72.875 65.75 69.375C61.4375 65.875 51.8125 57.25 51.8125 57.25C51.8063 57.3625 51.8 57.4875 51.8 57.6187C51.8 59.2312 52.45 60.6875 53.5 61.75C54.5625 63 60.5 68.75 63 71.375C65.5 74 67.6875 75.5625 65.5625 77.625C63.4375 79.6875 59.125 76.4375 56.75 74C53.0625 70.4375 45.75 63.8125 45.75 63.8125C45.7438 63.9125 45.7437 64.025 45.7437 64.1437C45.7437 65.9187 46.3563 67.5437 47.3875 68.8312C49.1875 71.1937 52.6875 74.2562 54.8125 76.6312C56.9375 79.0062 58.1875 81.0062 54.8125 82.8812C51.4375 84.7562 46.4375 80.1313 44.25 77.8813C44.25 77.875 44.25 77.875 44.25 77.8687C44.25 77.225 44.0125 76.6375 43.625 76.1875C42.6312 75.2687 41.2875 74.7 39.8187 74.7C39.1687 74.7 38.5438 74.8125 37.9625 75.0125C38.7625 74.3 39.2375 73.3 39.2375 72.1875C39.2375 71.075 38.7625 70.075 38 69.375C37.2125 68.7813 36.225 68.425 35.1562 68.425C34.0875 68.425 33.0938 68.7812 32.3 69.3812C33.0312 68.675 33.4813 67.7062 33.4813 66.625C33.4813 65.2938 32.8 64.125 31.7687 63.4437C30.8125 62.8375 29.6688 62.4875 28.4438 62.4875C26.9188 62.4875 25.5187 63.0375 24.4312 63.9437C25.025 63.2312 25.375 62.3187 25.375 61.3187C25.375 60.1 24.8438 59.0062 24.0063 58.25C22.8938 57.2188 21.4 56.5875 19.7625 56.5875C18.6063 56.5875 17.525 56.9 16.5938 57.45L12.4375 50.4313C9.5625 45.8688 6.1875 41.1187 6.1875 41.1187L20.4375 23.8063C20.4375 23.8063 25.5 26.9313 29.6875 29.3063C31.75 30.4938 35.3125 32.0562 38 33.3062C33.75 36.4937 30.1875 39.5563 31.25 41.6813C33.1063 43.0188 35.425 43.825 37.9312 43.825C40.2812 43.825 42.4688 43.1187 44.2938 41.9062C46.625 40.3375 49.5438 39.3875 52.6875 39.3875C54.8563 39.3875 56.9188 39.8375 58.7875 40.6562C62.25 42.9937 68.625 48.7437 74.4375 52.3687C81.75 57.6812 83.1875 61.1188 81.4375 62.8688V62.875Z" fill="url(#paint0_linear_1387_1025)"/>
</g>
<defs>
<linearGradient id="paint0_linear_1387_1025" x1="12.1324" y1="40.0691" x2="50.9797" y2="122.56" gradientUnits="userSpaceOnUse">
<stop stop-color="#3E5BDB"/>
<stop offset="1" stop-color="#FFB200"/>
</linearGradient>
<clipPath id="clip0_1387_1025">
<rect width="100" height="100" fill="white" transform="translate(0.5)"/>
</clipPath>
</defs>
</svg>
