<svg width="216" height="66" viewBox="0 0 216 66" fill="none" xmlns="http://www.w3.org/2000/svg">
<path d="M42.8071 22.3604L49.7857 26.263L50.0294 30.2508C50.1639 32.4443 50.2735 37.2202 50.2735 40.8646V47.4902H47.5995H44.9254V38.8904V30.2902L42.9198 29.0093C41.8166 28.3045 39.6953 27.1149 38.2058 26.3658L35.4974 25.0035L31.3296 27.3754L27.1619 29.7473L26.9224 33.7481C26.7902 35.9485 26.6615 39.9409 26.6359 42.6196L26.5889 47.4902H23.9148H21.2407V37.0586V26.6275L28.4034 22.577C32.3431 20.3491 35.625 18.5109 35.6972 18.4918C35.7694 18.4731 38.9687 20.2135 42.8071 22.3604Z" fill="#1A265C"/>
<path d="M63.2619 30.1087V41.7601H69.1663H75.0706L76.5673 39.1815C77.3906 37.7631 78.4529 35.8339 78.9278 34.8938C79.9523 32.8653 79.9076 32.693 76.9723 27.3942L74.9839 23.8056H70.0781H65.172V21.1223V18.4395L71.736 18.5437L78.3001 18.6484L82.4174 25.7748L86.5348 32.9016L82.3044 40.1957L78.0736 47.4902H67.8029H57.5317V32.9738V18.4574H60.3968H63.2619V30.1087Z" fill="#1A265C"/>
<path d="M107.953 28.6319C115.557 37.6156 116.573 38.6788 116.797 37.8834C116.936 37.3895 117.066 32.8164 117.087 27.7212L117.125 18.4574H119.99H122.856V32.9738V47.4902H119.819H116.782L112.298 42.2376C109.832 39.3488 105.999 34.8651 103.779 32.2744L99.7439 27.5634L99.5078 31.8923C99.3776 34.273 99.2488 38.7563 99.2213 41.8556L99.1709 47.4902H96.4968H93.8228V32.9738V18.4574L96.5923 18.4696L99.3619 18.4819L107.953 28.6319Z" fill="#1A265C"/>
<path d="M158.687 21.227L158.799 23.8056L147.608 23.8113C141.453 23.8147 136.181 23.9668 135.892 24.1497C135.319 24.5127 135.084 29.2851 135.613 29.8146C135.774 29.9766 141.006 30.1947 147.24 30.2997L158.574 30.4907L158.687 33.0693L158.799 35.6479H144.266H129.732V27.0481V18.4482L144.153 18.5483L158.574 18.6484L158.687 21.227Z" fill="#1A265C"/>
<path d="M158.765 42.1421V47.4902H144.462C136.595 47.4902 130.076 47.3569 129.976 47.1942C129.875 47.031 129.747 45.7849 129.692 44.4246L129.591 41.9511L141.503 41.8502L153.416 41.7494V39.2716V36.7939H156.09H158.765V42.1421Z" fill="#1A265C"/>
<path d="M171.371 27.0572V35.6574L173.376 36.9284C174.479 37.6278 176.506 38.8232 177.879 39.5853C180.736 41.1702 179.954 41.3345 185.983 37.8849L189.325 35.9726V27.215V18.4574H192.197H195.068L194.966 28.8599L194.865 39.2625L187.606 43.3527L180.348 47.4432L179.202 46.7736C178.572 46.4053 175.349 44.5778 172.039 42.7124L166.023 39.3209V28.889V18.4574H168.697H171.371V27.0572Z" fill="#1A265C"/>
</svg>
