<svg width="200" height="34" viewBox="0 0 200 34" fill="none" xmlns="http://www.w3.org/2000/svg">
<path d="M24.8136 4.52113L32.843 9.02112L33.1234 13.6193C33.2781 16.1486 33.4042 21.6555 33.4042 25.8578V33.4975H30.3275H27.2508V23.5813V13.6647L24.9433 12.1878C23.6739 11.3751 21.2332 10.0034 19.5195 9.13962L16.4032 7.56885L11.608 10.3038L6.81271 13.0388L6.53712 17.652C6.38505 20.1892 6.23692 24.7927 6.20748 27.8814L6.15341 33.4975H3.07671H0V21.4692V9.44135L8.24118 4.77089C12.774 2.20198 16.55 0.0823677 16.6331 0.0603435C16.7162 0.0387597 20.3972 2.04561 24.8136 4.52113Z" fill="#3E5BDB"/>
<path d="M48.3482 13.4555V26.8903H55.1416H61.935L63.6571 23.917C64.6042 22.2815 65.8266 20.057 66.3729 18.973C67.5517 16.634 67.5003 16.4354 64.123 10.3254L61.8352 6.18749H56.1908H50.5459V3.09352V0L58.0983 0.12025L65.6508 0.240944L70.388 8.45819L75.1253 16.6759L70.2579 25.0865L65.3901 33.4975H53.5729H41.7553V16.7591V0.0207015H45.0518H48.3482V13.4555Z" fill="#3E5BDB"/>
<path d="M99.7688 11.7526C108.518 22.1115 109.687 23.3373 109.944 22.4202C110.103 21.8507 110.254 16.5776 110.278 10.7025L110.322 0.0207015H113.618H116.915V16.7591V33.4975H113.421H109.926L104.768 27.4409C101.93 24.1099 97.5197 18.94 94.9661 15.9526L90.3233 10.5205L90.0517 15.5121C89.9018 18.2572 89.7537 23.4267 89.722 27.0004L89.664 33.4975H86.5873H83.5106V16.7591V0.0207015L86.6972 0.034796L89.8838 0.0488938L99.7688 11.7526Z" fill="#3E5BDB"/>
<path d="M158.141 3.21422L158.271 6.18749L145.395 6.19409C138.312 6.19806 132.247 6.37337 131.914 6.58436C131.255 7.00282 130.985 12.5058 131.593 13.1163C131.779 13.3031 137.799 13.5546 144.971 13.6757L158.011 13.896L158.141 16.8692L158.271 19.8425H141.549H124.826V9.92632V0.0101289L141.419 0.125536L158.011 0.240944L158.141 3.21422Z" fill="#3E5BDB"/>
<path d="M158.231 27.3308V33.4975H141.774C132.723 33.4975 125.223 33.3438 125.107 33.1562C124.991 32.9681 124.844 31.5312 124.78 29.9627L124.664 27.1105L138.37 26.9942L152.077 26.8779V24.0209V21.164H155.154H158.231V27.3308Z" fill="#3E5BDB"/>
<path d="M172.735 9.93689V19.8535L175.043 21.319C176.312 22.1255 178.643 23.5038 180.223 24.3826C183.51 26.2102 182.61 26.3996 189.547 22.422L193.393 20.2169V10.1188V0.0207015H196.696H200L199.883 12.0155L199.766 24.0104L191.415 28.7267L183.064 33.4434L181.745 32.6712C181.02 32.2466 177.312 30.1393 173.504 27.9884L166.582 24.0778V12.049V0.0207015H169.658H172.735V9.93689Z" fill="#3E5BDB"/>
</svg>
